<?xml version="1.0" encoding="UTF-8" standalone="no"?>
<svg width="51px" height="51px" viewBox="0 0 51 51" version="1.1" xmlns="http://www.w3.org/2000/svg" xmlns:xlink="http://www.w3.org/1999/xlink" xmlns:sketch="http://www.bohemiancoding.com/sketch/ns">
    <!-- Generator: Sketch 3.3.3 (12081) - http://www.bohemiancoding.com/sketch -->
    <title>logo22</title>
    <desc>Created with Sketch.</desc>
    <defs></defs>
    <g id="Page-1" stroke="none" stroke-width="1" fill="none" fill-rule="evenodd" sketch:type="MSPage">
        <g id="Projects-page-Copy" sketch:type="MSArtboardGroup" transform="translate(-741.000000, -627.000000)" fill="#010002">
            <g id="logo22" sketch:type="MSLayerGroup" transform="translate(741.210077, 627.500000)">
                <g id="Group" sketch:type="MSShapeGroup">
                    <path d="M24.9687885,0 C11.1797741,0 0,11.1797741 0,24.9687885 C0,38.7578029 11.1797741,49.937577 24.9687885,49.937577 C38.7578029,49.937577 49.937577,38.7578029 49.937577,24.9687885 C49.937577,11.176694 38.7578029,0 24.9687885,0 L24.9687885,0 Z M37.3907598,19.3632444 L37.4094456,20.1591376 C37.4094456,28.2864476 31.2265914,37.6497947 19.9187885,37.6497947 C16.448152,37.6497947 13.2177618,36.6323409 10.4962012,34.887577 C10.9768994,34.9437372 11.4668378,34.9749487 11.9631417,34.9749487 C14.8439425,34.9749487 17.4937372,33.9917864 19.5973306,32.3438398 C16.9069815,32.2939425 14.637885,30.5148871 13.8545175,28.07423 C14.2321355,28.1459959 14.6129363,28.1803901 15.012423,28.1803901 C15.57423,28.1803901 16.1172485,28.1086242 16.6322382,27.9681725 C13.8201232,27.4001027 11.700924,24.9188912 11.700924,21.9413758 L11.700924,21.863347 C12.5311088,22.3252567 13.4767967,22.5998973 14.4849076,22.6342916 C12.836961,21.5325462 11.7508214,19.6505133 11.7508214,17.5187885 C11.7508214,16.3920945 12.0535934,15.3371663 12.5810062,14.4289528 C15.6116016,18.1492813 20.1434292,20.5962012 25.2526694,20.8521561 C25.1465092,20.4026694 25.0935318,19.9314168 25.0935318,19.4508214 C25.0935318,16.0582136 27.8463039,13.3053388 31.2420945,13.3053388 C33.0086242,13.3053388 34.6066735,14.051232 35.7301848,15.2466119 C37.1284394,14.9687885 38.4455852,14.4569815 39.6347023,13.7547228 C39.1758727,15.1904517 38.2021561,16.3951745 36.9318275,17.1566735 C38.1709446,17.0099589 39.3600616,16.6759754 40.461807,16.189117 C39.637885,17.4187885 38.5922998,18.501848 37.3907598,19.3632444 L37.3907598,19.3632444 Z" id="Shape"></path>
                </g>
            </g>
        </g>
    </g>
</svg>